<svg xmlns="http://www.w3.org/2000/svg" width="820" height="420" viewBox="0 0 820 420">
  <rect width="820" height="420" fill="#fff"/>
  <rect x="40" y="40" width="740" height="340" rx="20" fill="#f5f7fa" stroke="#bbb" stroke-width="2"/>
  <rect x="120" y="90" width="180" height="60" rx="10" fill="#e3eefd" stroke="#4a90e2" stroke-width="2"/>
  <text x="210" y="125" font-size="18" text-anchor="middle" fill="#222">Transport</text>
  <text x="210" y="145" font-size="12" text-anchor="middle" fill="#555">(HTTP / File / Memory)</text>

  <rect x="340" y="90" width="180" height="60" rx="10" fill="#e3eefd" stroke="#4a90e2" stroke-width="2"/>
  <text x="430" y="125" font-size="18" text-anchor="middle" fill="#222">Rasterizer</text>
  <text x="430" y="145" font-size="12" text-anchor="middle" fill="#555">(Polystream → R8 Mask / TriStrip)</text>

  <rect x="560" y="90" width="180" height="60" rx="10" fill="#e3eefd" stroke="#4a90e2" stroke-width="2"/>
  <text x="650" y="125" font-size="18" text-anchor="middle" fill="#222">FrameCache</text>
  <text x="650" y="145" font-size="12" text-anchor="middle" fill="#555">(LRU, Thread-safe)</text>

  <rect x="230" y="200" width="180" height="60" rx="10" fill="#e3fbe3" stroke="#27ae60" stroke-width="2"/>
  <text x="320" y="235" font-size="18" text-anchor="middle" fill="#222">Scheduler</text>
  <text x="320" y="255" font-size="12" text-anchor="middle" fill="#555">(Tasks, Rate Control)</text>

  <rect x="430" y="200" width="180" height="60" rx="10" fill="#e3fbe3" stroke="#27ae60" stroke-width="2"/>
  <text x="520" y="235" font-size="18" text-anchor="middle" fill="#222">Prefetcher</text>
  <text x="520" y="255" font-size="12" text-anchor="middle" fill="#555">(Sequential Detection)</text>

  <rect x="320" y="300" width="180" height="60" rx="10" fill="#fffbe3" stroke="#f5a623" stroke-width="2"/>
  <text x="410" y="335" font-size="18" text-anchor="middle" fill="#222">AlphaStreamProcessor</text>
  <text x="410" y="355" font-size="12" text-anchor="middle" fill="#555">(API / Orchestrator)</text>

  <rect x="40" y="370" width="740" height="40" rx="10" fill="#f9f9f9" stroke="#bbb" stroke-width="1"/>
  <text x="410" y="395" font-size="16" text-anchor="middle" fill="#222">C ABI (AlphaStreamCHandle) / Rust API</text>

  <!-- Arrows -->
  <line x1="300" y1="120" x2="340" y2="120" stroke="#4a90e2" stroke-width="2" marker-end="url(#arrow)"/>
  <line x1="520" y1="120" x2="560" y2="120" stroke="#4a90e2" stroke-width="2" marker-end="url(#arrow)"/>
  <line x1="210" y1="150" x2="320" y2="200" stroke="#27ae60" stroke-width="2" marker-end="url(#arrow)"/>
  <line x1="430" y1="150" x2="520" y2="200" stroke="#27ae60" stroke-width="2" marker-end="url(#arrow)"/>
  <line x1="650" y1="150" x2="520" y2="200" stroke="#27ae60" stroke-width="2" marker-end="url(#arrow)"/>
  <line x1="320" y1="260" x2="410" y2="300" stroke="#f5a623" stroke-width="2" marker-end="url(#arrow)"/>
  <line x1="520" y1="260" x2="410" y2="300" stroke="#f5a623" stroke-width="2" marker-end="url(#arrow)"/>
  <line x1="410" y1="360" x2="410" y2="370" stroke="#bbb" stroke-width="2" marker-end="url(#arrow)"/>

  <defs>
    <marker id="arrow" markerWidth="10" markerHeight="10" refX="10" refY="5" orient="auto" markerUnits="strokeWidth">
      <path d="M0,0 L10,5 L0,10 L2,5 z" fill="#888" />
    </marker>
  </defs>
</svg>
